<?xml version="1.0" encoding="UTF-8"?>
<svg id="Layer_2" data-name="Layer 2" xmlns="http://www.w3.org/2000/svg" viewBox="0 0 307.38 307.38">
  <defs>
    <style>
      .cls-1 {
        fill: #2bbdc1;
      }

      .cls-2 {
        fill: #0b174f;
      }
    </style>
  </defs>
  <g id="Layer_1-2" data-name="Layer 1">
    <g>
      <circle class="cls-1" cx="153.69" cy="153.69" r="153.69"/>
      <g>
        <path class="cls-2" d="M259.45,141.01c-1.2-4.71-5.77-5.48-9.8-6.16-2.28-.39-4.44-.75-6-1.71l-6.41-15.55c.82-1.92,2.01-3.58,3.15-5.19,2.86-4.01,5.56-7.8.57-13.73-3.06-3.64-10.22-10.91-13.91-13.9-5.86-4.75-9.75-1.84-13.88,1.23-1.4,1.05-2.85,2.13-4.45,2.97l-15.95-6.62c-.84-1.63-1.18-3.67-1.54-5.83-.72-4.31-1.54-9.2-7.12-10.14-4.36-.73-17.32-.53-22.09-.12-7.04.6-7.87,5.82-8.68,10.87-.28,1.74-.57,3.55-1.11,5.18l-15.5,6.39c-.44.16-.81.08-1.43-.15-1.37-.5-2.75-1.58-4.22-2.72-3.19-2.48-6.81-5.28-11.28-2.72l-.07.04-17.75,17.79-.1.13c-1.65,3-1.06,4.99-.06,7.55h-20.18v-18.7c6.7-2.96,9.84-8.03,9.07-14.71-.58-5.04-5.58-10-10.71-10.61-8.34-.99-13.25,4.36-14.41,10.09-1.11,5.52,1.2,12.46,8.87,14.89v22.83s0,.09,0,.09c.27,1.74,1.56,3.03,3.29,3.29h62.89s.16-.11.16-.11c16.81-13.17,39.33-14.53,57.36-3.46,17.79,10.92,26.3,30.62,22.2,51.4-3.26,16.53-14.77,29.92-30.79,35.82-16.7,6.15-34.93,3.26-48.76-7.71l-.16-.13h-62.8s-.09,0-.09,0c-1.73.26-3.03,1.56-3.29,3.29v.04s0,22.87,0,22.87c-7.66,2.42-9.98,9.37-8.87,14.89,1.06,5.27,5.29,10.21,12.44,10.21.63,0,1.29-.04,1.97-.12,5.12-.61,10.13-5.57,10.71-10.61.78-6.73-2.28-11.68-9.07-14.7v-18.7h20.16c-1.25,3.1-1.42,5.36.64,8.36l17.24,17.05.12.09c4.47,2.57,8.08-.24,11.28-2.72,1.47-1.14,2.86-2.22,4.22-2.72.61-.22.98-.3,1.4-.16l15.53,6.4c.57,1.74.86,3.58,1.14,5.36.83,5.21,1.61,10.14,9.08,10.69,5.18.38,14.45.47,20,0,7.19-.62,7.93-5.11,8.71-9.86.34-2.1.7-4.27,1.63-6.24l15.93-6.61c1.6.84,3.04,1.92,4.45,2.97,4.12,3.08,8.02,5.98,13.88,1.23,3.63-2.94,11.39-10.72,14.33-14.36,1.99-2.47,2.83-4.25,2.19-7.7-.29-1.55-1.86-3.73-3.38-5.83-1.36-1.88-3.04-4.2-2.94-5.13l6.73-15.79c1.49-.53,3.19-.81,5-1.11,4.73-.78,10.1-1.67,10.71-7.92.36-3.71.56-20.62-.24-23.78ZM76.33,224.78h0c.62-.13,1.22-.19,1.79-.19,1.85,0,3.35.68,4.35,1.99,1.31,1.73,1.51,4.33.47,6.33-.56,1.08-1.97,2.87-5.08,2.77-3.34-.11-5.05-2.74-5.27-5.28-.2-2.36.88-5.02,3.74-5.61ZM76.75,71.84c2.51-.45,4.58.28,5.82,2.08,1.28,1.86,1.39,4.48.25,6.38-1.1,1.84-3.16,2.7-5.79,2.4-3.18-.36-4.39-2.95-4.46-5.05-.08-2.5,1.33-5.29,4.18-5.81ZM238.65,168.3l-.16.18-8.78,20.74-.04.12c-.52,2.77,1.85,5.8,3.95,8.47,1.08,1.38,2.11,2.68,2.58,3.76.29.65.39,1.01.2,1.41-1.36.98-4.15,3.99-7.09,7.17-2.93,3.17-6.95,7.51-7.83,7.74-.63.12-3.46-1.87-5.33-3.19-2.8-1.98-5.44-3.86-6.94-3.92h-.12s-21.22,8.55-21.22,8.55l-.09.05c-2.22,1.39-2.85,5.54-3.41,9.19-.26,1.69-.5,3.28-.86,4.37-.03.09-.06.18-.08.26-.2.64-.26.7-.58.72l-21.22-.21c-.54-.57-1.07-3.77-1.43-5.92-.57-3.43-1.11-6.68-2.2-7.78l-.08-.08-21.72-9.12-.14-.04c-1.6-.22-4.31,1.62-7.96,4.24-1.63,1.17-3.84,2.76-4.54,2.88l-15.43-15.42c.31-.89,2.04-3.46,2.62-3.7l28.46.24c10.1,7.34,21.75,11.13,33.65,10.95,11.13-.16,21.99-3.67,31.4-10.16,9.4-6.48,16.52-15.35,20.61-25.67,4.41-11.13,4.97-23.44,1.64-35.6-4.91-17.91-17.93-31.7-35.72-37.82-17.76-6.11-37.27-3.16-52.22,7.9l-27.8.02c-.6-.26-2.33-2.81-2.63-3.7l15.42-15.42c.76.15,3.09,1.84,4.82,3.09,3.3,2.39,5.57,3.97,6.92,4.01,1.15.04,3.34-.9,5.1-1.65.54-.23,1.02-.43,1.38-.57,2.78-1.06,5.55-2.27,8.24-3.44,2.38-1.04,4.85-2.11,7.3-3.07l.06-.03c.67-.36,1.13-.89,1.47-1.65.74-1.67,1.03-4.03,1.31-6.31.25-2.04.51-4.15,1.08-5.58.19-.47.32-.64.61-.74l21.43.11c.42.61.82,3.17,1.12,5.08.61,3.87,1.24,7.87,2.88,8.9l21.43,8.89.17.04c1.79.16,4.68-1.98,7.46-4.04,1.65-1.22,3.22-2.38,4.22-2.8.08-.03.15-.07.23-.1.44-.19.57-.23.77-.11l14.92,15.08c.08.37-.06.71-.28,1.2-.5,1.14-1.58,2.52-2.73,3.97-1.18,1.5-2.39,3.05-3.07,4.47-.07.16-.15.31-.23.46-.38.73-.76,1.48-.64,2.51v.08s8.54,21,8.54,21l.08.13c.5.66,1.13,1.48,2.05,1.84,1.45.57,3.7.85,5.88,1.11,2.34.29,4.75.59,5.97,1.22q.42.22.42.47l-.19,21.56c-.85.4-4.25.96-6.55,1.34-2.51.41-4.67.77-5.53,1.1-.69.27-1.13.75-1.55,1.21Z"/>
        <path class="cls-2" d="M89.77,171.12h68.51v13.03c0,.73,1.8,2.51,1.93,2.62,2.26,1.87,5.04,1.69,7.65-.51,4.89-4.64,10.39-9.04,15.71-13.3,5.38-4.3,10.95-8.75,15.87-13.45,2.3-2.19,3.72-3.93,3.72-5.82s-1.42-3.63-3.72-5.82c-5.02-4.79-10.69-9.32-16.18-13.71-5.3-4.24-10.78-8.62-15.69-13.24-2.41-2.01-5.17-2.12-7.37-.31-.13.1-1.93,1.89-1.93,2.62v13.03h-68.51l-8.1-9.18-16.74-.3c-1.87-5.08-6.49-8.44-11.88-8.61-5.12-.16-9.36,2.64-11.34,7.49-1.82,4.47-1.31,8.78,1.44,12.13,2.93,3.57,7.97,5.38,12.55,4.49,4.27-.82,7.46-3.75,9.01-8.26l13.64-.07,8.19,9.18,75.07.33c1.45.12,3.54-1.41,3.85-2.84.39-1.84.22-4.34.06-6.76-.12-1.71-.24-3.46-.15-4.95l29.28,24.92-29.17,24.53v-11.51c0-.85-1.08-1.77-1.41-2.03-.43-.34-1.53-1.1-2.46-.93l-75.06.34-8.19,9.18-13.64-.07c-1.53-4.5-4.7-7.43-8.96-8.26-4.59-.89-9.65.91-12.59,4.49-2.76,3.36-3.27,7.67-1.45,12.14,1.93,4.72,5.99,7.5,10.92,7.5.14,0,.28,0,.42,0,5.38-.17,10-3.54,11.88-8.61l16.74-.3,8.1-9.18ZM52.11,125.4c1.97-.29,3.65.33,4.73,1.75,1.17,1.54,1.44,3.76.67,5.52-.69,1.57-2.1,2.53-3.98,2.7-3.38.32-5.19-1.99-5.48-4.41-.28-2.35.87-5.1,4.05-5.56ZM52.11,172.07c.34-.05.67-.07.99-.07,1.59,0,2.92.6,3.79,1.75,1.13,1.48,1.37,3.69.59,5.49-.71,1.63-2.11,2.63-3.95,2.81-3.34.33-5.18-2.08-5.47-4.46-.28-2.33.86-5.05,4.04-5.51Z"/>
        <path class="cls-2" d="M74.28,166.82c.87,0,1.87-.34,2.89-1.23.63-.56,1.87-2.13,3.18-3.8,1.28-1.63,3.21-4.07,3.75-4.42l35.72-.07c2.47-.22,3.6-2.02,3.6-3.61,0-1.58-1.13-3.39-3.66-3.61l-37.94.1h-.13c-1.54.36-3.54,2.78-6.41,6.43-1.5,1.91-2.92,3.7-3.83,4.4l-.14.1-.06.16c-.71,2.02-.21,4.04,1.25,5.01.47.32,1.08.53,1.77.53Z"/>
        <path class="cls-2" d="M95.51,129.65h.04s.04,0,.04,0c4.8-.42,10.14-.17,15.3.07,3.14.15,6.34.29,9.46.29,2.5,0,4.94-.1,7.25-.36,2-.23,3.45-1.46,3.67-3.14.23-1.68-.82-3.26-2.68-4.02l-.11-.04-34.14.08h-.1l-.1.04c-1.73.66-2.7,2.15-2.45,3.81.27,1.8,1.83,3.14,3.81,3.28Z"/>
        <path class="cls-2" d="M109.9,177.67c-5.09.24-10.36.48-15.08.16h-.11s-.1.02-.1.02c-1.9.58-3.11,2.22-2.95,3.99.15,1.67,1.48,2.88,3.39,3.11,2.37.28,4.87.37,7.43.37,3.18,0,6.46-.15,9.67-.3,5.32-.25,10.83-.5,15.78-.06h.06s.06,0,.06,0c2.13-.28,3.24-2.02,3.23-3.6-.01-1.59-1.15-3.33-3.68-3.62-5.47-.63-11.69-.34-17.7-.06Z"/>
      </g>
    </g>
  </g>
</svg>