<?xml version="1.0" encoding="UTF-8"?>
<svg id="Layer_2" data-name="Layer 2" xmlns="http://www.w3.org/2000/svg" viewBox="0 0 307.38 307.38">
  <defs>
    <style>
      .cls-1 {
        fill: #2bbdc1;
      }

      .cls-2 {
        fill: #0b174f;
      }
    </style>
  </defs>
  <g id="Layer_1-2" data-name="Layer 1">
    <g>
      <circle class="cls-1" cx="153.69" cy="153.69" r="153.69"/>
      <g>
        <path class="cls-2" d="M156.24,211.26c-1.52-1.23-3.75-.94-6.11-.64-1.21.15-2.45.32-3.67.28-20.39-.52-40.15-14.17-48.05-33.2-6.96-16.76-5.18-35.09,4.88-50.28,10.01-15.11,26.76-24.21,44.81-24.35.87,0,1.84.12,2.78.25,2.09.28,4.26.57,5.66-.64.92-.79,1.38-2.11,1.4-4.06-.36-6.39-.15-13.13.05-19.65.22-7.05.45-14.35-.05-21.23l-.02-.21c-.17-2.39-.33-4.66-3.57-5.03-4.03-.47-8.61-.25-13.05-.04-3.66.17-7.44.35-10.83.14h-.08s-.08.01-.08.01c-.67.16-1.19.46-1.6.92-1.06,1.2-1.89,5.85-2.94,12.29-.47,2.9-.92,5.63-1.29,6.9l-.07.24c-.14.51-.24.82-.54,1.01l-17.73,7.25-15.93-10.64-2.88-.28-25.59,25.53-.05.06c-.84,1.11-.51,1.89-.16,2.72l.08.19c1.08,2.59,3.23,5.4,5.32,8.11,1.89,2.46,3.84,5.01,4.9,7.29.05.11.11.22.17.33.18.33.26.5.21.73l-7.67,18c-1.66.63-5.29,1.15-8.81,1.66-4.91.7-9.54,1.37-10.9,2.49-.94.77-1.49,2.68-1.47,3.75.52,4.71.22,10.21-.07,15.54-.32,5.89-.65,11.99.12,17.07.15,1.01.88,2.76,2.17,3.19l18.85,3.75.46.39,7.32,17.86c-.27,1.06-3.64,5.88-5.89,9.11-1.95,2.8-3.64,5.21-4.22,6.31-.08.15-.17.3-.26.45-.42.7-.94,1.58-.51,2.62l.04.1,25.26,25.66.06.05c1.18.88,2.51.54,3.53.14,2.3-.89,5-3.01,7.85-5.25,2.56-2.02,5.21-4.1,7.43-5.1.12-.05.23-.12.34-.19.2-.12.28-.16.36-.16l17.91,7.64c.87,2.79,1.35,5.92,1.82,8.94.47,3.03.96,6.16,1.83,8.95.72,2.3,1.07,3.04,3.76,3.28,1.71.15,3.47.21,5.27.21,2.31,0,4.66-.09,6.97-.18,3.63-.14,7.39-.29,10.87-.07h.06s.06,0,.06,0c2.76-.45,2.98-2.71,3.17-4.7v-.12s0-.04,0-.04c-.41-6.39-.17-13.21.06-19.81.25-7.17.52-14.58-.06-21.48-.16-1.94-.72-3.26-1.7-4.06ZM78.99,201.59l.08-.12.3-3.74-.07-.13c-1.54-3.18-2.85-6.6-4.13-9.92-1.2-3.11-2.43-6.32-3.84-9.32-.07-.15-.15-.33-.24-.53-.59-1.34-1.13-2.49-1.83-2.86l-.07-.04-18.94-4.17.06-27.69,19.5-4.24,9.66-22.86-.25-3.13-.05-.1c-1.06-2.02-2.84-4.31-4.55-6.54-2.04-2.65-4.16-5.4-5.1-7.68-.03-.07-.06-.15-.09-.22-.19-.42-.22-.55-.11-.74l19.52-19.42,16.75,10.58,22.86-9.23.11-.05,2-2.11,3.35-17.96h17.14v36.94l-.29.26c-3.97-.52-8.57.02-12.16.55-13.26,1.96-24.99,7.91-33.92,17.2-8.27,8.61-13.81,19.6-16.02,31.79-2.22,12.25-.87,24.56,3.9,35.61,5.15,11.92,14.11,21.68,25.92,28.21,10.09,5.58,21.84,8.3,32.29,7.49l.29.25v36.94h-17.15c-.44-2.1-.77-4.35-1.13-6.72-.55-3.71-1.12-7.55-2.14-10.8-.21-.69-.58-1.66-1.28-2.19l-23.81-9.68-16.7,10.62-19.43-19.73,9.58-14.55Z"/>
        <path class="cls-2" d="M250.52,147.52c0-4.13-1.96-7.9-5.28-10.22,2.39-2.89,3.34-6.63,2.61-10.37-.76-3.88-3.23-7.06-6.77-8.73-.39-.19-3.36-1.34-3.9-1.34h-26c1.16-13.32,3.24-39.89-11.78-46.5-3.94-1.74-9.85-2.58-13.51-.34-2.02,1.24-3.12,3.23-3.27,5.91-.16,2.81.01,5.6.17,8.3.21,3.51.43,7.15-.04,11-1.9,15.54-9.84,23.49-26.51,26.54-1.17-1.9-3.34-3.31-5.64-3.62-3.22-.44-14.56-.47-17.77.07-3.94.66-6.55,3.96-6.96,8.84-.86,9.98-.47,20.76-.09,31.18.34,9.56.7,19.44.09,28.67v.03s0,.03,0,.03c.22,3.97,2.57,8.27,7.33,8.92,3.57.48,13.48.44,17.01.04,2.24-.25,4.16-1.29,5.7-3.1.28-.33.44-.82.57-1.22.03-.09.06-.19.09-.27,1.34-.4,9.2,1.71,13.47,2.85,2.89.77,5.39,1.44,6.53,1.61,3.94.6,7.74.83,11.48.83,6.06,0,11.97-.6,18.09-1.23,4.32-.44,8.78-.9,13.32-1.12,1.66-.08,3.43-.02,5.3.04,7.09.24,15.13.52,17.8-7.94,1.28-4.05.25-6.79-1.16-10.1,3.11-1.43,5.35-4.26,6.18-7.84.89-3.84,0-7.78-2.36-10.69,3.32-2.31,5.29-6.09,5.29-10.22ZM214.14,182.59c.06-1.7.9-3.86,3.04-4.34,1.71-.39,14.39-.31,15.96.1,2.43.63,3.18,2.86,3.09,4.59-.1,1.94-1.28,4.06-3.7,4.43-1.99.31-14.25.28-15.63-.14-2.01-.62-2.84-2.77-2.76-4.64ZM213.44,170.89c-3.07-.85-4.08-3.41-4.01-5.51.08-2.15,1.37-4.72,4.04-5.26,1.26-.26,6.51-.39,11.76-.39s10.49.13,11.76.39c2.9.59,4.11,3.3,4.02,5.57-.1,2.39-1.61,5.1-5.58,5.58-3.76.45-18.79.51-21.99-.38ZM239.06,153.07c-3.82.64-21.77.64-25.61,0-3.53-.59-4.8-3.38-4.81-5.58-.02-2.34,1.34-4.96,4.4-5.51,3.5-.64,22.22-.63,26.01,0,3.33.56,4.51,3.31,4.51,5.49,0,2.41-1.39,5.07-4.51,5.59ZM236.25,134.98c-3.06.42-17.47.45-20.09-.23-3.12-.81-4.12-3.51-4.03-5.58.1-2.29,1.57-4.83,4.62-5.34,3.7-.62,14.85-.46,18.75-.11,3.85.34,5.63,3.07,5.69,5.62.06,2.47-1.45,5.16-4.94,5.64ZM189.68,76c2.66-.7,5.09-.44,7.24.78,3.05,1.73,5.51,5.46,6.74,10.24,2.18,8.48,1.49,17.47.82,26.16-.29,3.77-.59,7.67-.65,11.45,0,.59.12,1.15.24,1.7.12.54.23,1.05.23,1.59-.03,6.27-1.74,14.71-9.69,19.29-.73.42-1.93.87-3.09,1.31-1.54.58-2.87,1.09-3.44,1.6-1.01.91-1.37,2.35-.93,3.76.32,1.04,1.01,1.74,1.99,2.02,3.53,1.03,10.29-3.52,12.76-5.42.98,2.43,2.02,4.5,4.14,6.34-2.76,2.73-4.04,6.82-3.35,10.85.66,3.85,2.99,7.01,6.3,8.58-2.3,4.35-2.43,8.42-.38,12.11l-.46.28c-2.06.12-4.14.27-6.15.42-8.49.62-16.51,1.21-24.82-.13-2.69-.43-5.39-1.24-7.99-2.02-3.62-1.08-7.36-2.2-11.25-2.39l-.03-56.12c6.65-1.46,14.93-3.86,21.09-9.34,12.14-10.8,11.39-28.62,10.69-43.07ZM151.07,186.09c-.03,1.21-.42,2.6-1.08,2.88l-15.66.07-1.47-1.6.22-61.45.9-.94,15.73-.07c.63.09.89.6,1.17,1.55l.2,59.55Z"/>
        <path class="cls-2" d="M197.33,204.37c-9.01-1.18-17.8,1.77-24.11,8.08-6.96,6.96-9.77,16.99-7.51,26.85,2.21,9.68,8.97,17.36,18.08,20.54,3.31,1.16,6.66,1.72,9.94,1.72,8.36,0,16.26-3.67,21.93-10.53,7.86-9.5,8.87-22.09,2.64-32.85-4.41-7.61-12.05-12.65-20.96-13.82ZM174.92,221.26c3.65-6.66,10.27-10.33,18.62-10.34h.02c14.33,0,21.21,10.94,21.54,21.11.33,10.24-5.78,21.69-20,22.6-8.37.54-15.26-2.72-19.37-9.18-4.52-7.11-4.85-16.83-.81-24.2Z"/>
        <path class="cls-2" d="M185.83,242.55c.75.87,1.66,1.32,2.64,1.32.64,0,1.3-.19,1.99-.56l.07-.04,15.94-15.99c1.1-1.28,1.2-2.93.27-4.19-.83-1.12-2.53-1.88-4.44-1.04-1.97.87-4.51,3.73-7.19,6.77-2.02,2.28-4.1,4.64-5.64,5.7-.11.08-.2.16-.29.24-.03.03-.07.06-.1.09-.22-.41-.46-.91-.71-1.44-.98-2.08-2.2-4.67-4.13-5.32-.8-.27-1.64-.18-2.5.26-2.21,1.14-1.98,2.97-1.45,4.61.44,1.39,4.66,8.56,5.55,9.59Z"/>
      </g>
    </g>
  </g>
</svg>