<?xml version="1.0" encoding="UTF-8"?>
<svg id="Layer_2" data-name="Layer 2" xmlns="http://www.w3.org/2000/svg" viewBox="0 0 307.38 307.38">
  <defs>
    <style>
      .cls-1 {
        fill: #2bbdc1;
      }

      .cls-2 {
        fill: #0b174f;
      }
    </style>
  </defs>
  <g id="Layer_1-2" data-name="Layer 1">
    <g>
      <circle class="cls-1" cx="153.69" cy="153.69" r="153.69"/>
      <g>
        <path class="cls-2" d="M161.17,51.32c35.34,2.28,65.85,23.38,79.18,56.36,18.53,45.84-.42,97.32-45.41,117.87.31,2.47.52,4.91.37,7.41-.36,6.31-1.85,16.69-3.09,22.95-1.32,6.64-6.91,12.71-13.81,13.51-6.25.73-24.93.64-30.47-1.45-2.83-1.07-6.05-4.19-8.52-4.72-2.2-.47-4.62-.05-6.86-.19.35,3.47-.63,6.5-4.46,6.85-7.02.65-15.06-.5-22.19-.04-2.5-.67-3.44-2.41-3.67-4.87-1.28-13.66,1.01-29.28,0-43.15l1.72-3.82c-36.09-24.91-48.8-70.63-31.78-111.19,13.39-31.91,43.73-53.32,78.32-55.51h10.67ZM166.72,213.96h14.73c.38,0,4.15,1.33,4.77,1.63,4.16,1.99,2.52,3.74,7.83,1.15,7.98-3.89,17.28-11.19,23.26-17.72,52.49-57.3,3.85-149.06-73.37-138.26-73.1,10.22-96.49,106.72-36.09,149.52,6.94,4.92,11.24,8.1,20.23,7.09,4.33-.49,4.85-3.73,7.04-6.83-22.13-6.61-40.17-24.31-46.74-46.54-10.06-34.06,5.03-70.18,37.2-85.32,2.47-1.16,9.16-4.09,11.58-4.23,3.98-.23,5.89,4.32,3.32,7.18-1.33,1.49-7.56,3.13-9.91,4.18-30.67,13.59-44.51,48.69-32.48,80.01,7.1,18.49,22.65,32.16,41.74,37.27l12.21-18.54c.5-.33,1.06-.47,1.66-.51,2.04-.14,8.25,3.15,10.16,4.37,5.03,3.22,7.77,8.87,7.12,14.87,37.4-7.73,57.7-51.6,42.33-86.09-5.47-12.29-16.84-24.05-28.81-30.1-3.58-1.81-8.59-2.85-11.69-4.53-4.46-2.42-2.38-8.53,2.17-8.18,4.8.37,16.58,6.7,20.81,9.53,49.13,32.94,37.42,110.44-18.41,126.84-2.89.85-7.85,1.29-10.14,2.24-.51.21-1.07.53-.53.97ZM132.57,254.52h6.62c5.63,0,9.62,5.71,14.99,6.36,4.82.58,18.23.64,23.02.06,3.44-.42,5.69-3.12,6.49-6.32,1.32-5.29,2.77-16.54,3.1-22.09.88-14.66-14.94-8.82-24.08-10.06-1.8-.25-3.45-1.3-4.52-2.74-5.96-8.02,11.07-16.18,1.25-23.87-1.06-.83-3.3-2.47-4.18-1.25-5.89,8.14-10.55,17.97-16.53,26.16-1.68,1.86-3.5,3.93-6.15,4.3v29.46ZM124.03,225.92h-13.23v35.43h13.23v-35.43Z"/>
        <path class="cls-2" d="M154.64,97.09c1.65-.38,3.48-.17,4.62,1.17l13.63,20.09c6.92,2.88,15.36,3.7,22.23,6.38,3.35,1.31,4.54,2.88,3.13,6.57l-14.78,18.95.76,24.24c-.32,2.65-3.01,4.68-5.67,3.95l-22.37-8.32-23.03,8.39c-2.57.47-4.37-1.16-5.02-3.49l.92-24.35-14.78-18.95c-1.95-2.69-.71-5.39,2.06-6.76l23.03-6.42,13.5-20.23c.44-.6,1.04-1.05,1.77-1.21ZM175.26,167.86l-.4-20.25,12.35-15.82-19.78-6.25-10.95-16.59-11.96,16.85-19.2,5.35c-.11.7.34,1.14.68,1.67,2.14,3.32,11.01,12.38,11.61,15.29l-.75,19.75,19.06-6.68,19.35,6.68Z"/>
        <path class="cls-2" d="M155.08,71.89c5.4-1.2,7.72,7.71,1.57,8.44-5.33.64-6.49-7.35-1.57-8.44Z"/>
      </g>
    </g>
  </g>
</svg>