<?xml version="1.0" encoding="UTF-8"?>
<svg id="Layer_2" data-name="Layer 2" xmlns="http://www.w3.org/2000/svg" viewBox="0 0 307.38 307.38">
  <defs>
    <style>
      .cls-1 {
        fill: #2bbdc1;
      }

      .cls-2 {
        fill: #0b174f;
      }
    </style>
  </defs>
  <g id="Layer_1-2" data-name="Layer 1">
    <g>
      <circle class="cls-1" cx="153.69" cy="153.69" r="153.69"/>
      <g>
        <path class="cls-2" d="M95.03,170.86c1.71.14,3.2-.72,3.78-2.2l.04-.09v-.1c.34-11.48,2.13-20.68,5.66-28.93.98-2.29,5.63-11.16,6.94-12.26,5.29,3.1,14.83,10.27,14.73,16.28-.02,1.17-.76,3.73-1.04,4.7-.48,1.65-1.72,4.04-2.91,6.36-1.62,3.13-3.14,6.08-3.23,7.85-.09,1.78.85,3.28,2.45,3.91,1.65.65,3.47.17,4.65-1.23l.09-.15c.75-1.78,1.63-3.57,2.56-5.46,3.48-7.04,7.08-14.32,3.89-21.98-1.75-4.21-4.72-7.1-7.86-10.17-.34-.33-.68-.66-1.02-1l-7.11-5.52c3.04-3.17,6.35-6.46,10.26-9.28,4.72-3.4,5.93-3.94,6.23-4.02.08-.02.15-.04.21-.06.05-.01.09-.03.12-.04.03.03.08.08.16.17.55.62,1.34,2.07,2.1,3.48.66,1.22,1.34,2.48,1.93,3.33,8.36,11.88,17.64,14.98,30.08,10.04,1.7-.67,3.7-2.06,5.63-3.41,2.03-1.41,4.13-2.87,5.37-3.08,2.02-.33,3.8.28,5.68.94,1.32.46,2.69.94,4.16,1.06,6.84.56,12.91-4.03,16.19-8.27,2.7,1.41,12.38,10.66,13.11,12.56-2.88,3.12-5.52,6.96-7.65,11.13-.47.91-.95,2.08-1.46,3.31-1.84,4.42-4.12,9.93-8.02,10.4-2.58.31-5.15.16-7.86,0-3.12-.19-6.35-.38-9.62.19-10.08,1.76-15.56,9.87-18.39,16.36-2.43,5.57-3.19,9.53-2.28,11.77.36.87.96,1.48,1.79,1.82.62.25,1.2.37,1.74.37s1-.11,1.44-.34c1.93-1,2.6-3.92,3.2-6.49.22-.93.42-1.82.66-2.47,1.56-4.26,4.87-9.53,8.75-11.69,3.93-2.19,8.94-1.96,13.78-1.73,2.59.12,5.27.25,7.7-.02,7.94-.86,11.31-8.21,14.57-15.32,1.89-4.13,3.69-8.04,6.29-10.72,2.57,4.38,4.3,7.91,5.57,11.36.37,1,.9,3.02,1.46,5.15,1.1,4.2,1.87,7.02,2.49,7.82,1.03,1.32,2.66,1.78,4.16,1.16,1.54-.63,2.94-2.46,2.63-5.15-1.36-11.61-7.5-23.89-17.28-34.58-9.18-10.04-20.96-17.92-32.31-21.62-6.65-2.17-13.3-3.08-19.55-3.8-.33-3.3,0-8.71,4.98-11.29.34.17,1.09.95,1.5,1.39.42.43.77.81,1.05,1.02,7.26,5.33,15.02,5.7,25.15,1.22,1.79-.79,3.58-1.95,5.48-3.18,3.36-2.18,6.82-4.45,10.12-4.35.72.02,1.49.25,2.31.49,1.94.57,4.13,1.22,5.75-1.22,1.51-2.27.51-3.68-.65-5.31l-.05-.07c-4.74-6.68-18.91-17.85-28.02-18.98-.94-.12-1.96-.07-2.96-.02-.85.04-1.73.09-2.52.02h-.07s-.07,0-.07,0c-12.29,2.18-19.22,9.72-19.55,21.26l-6.47,4.95c-1.96-2.03-3.88-3.56-6.3-5-.69-9.44-4.48-15.57-11.56-18.73-1.51-.67-3.1-1.09-4.64-1.5-1.08-.29-2.19-.58-3.24-.96l-.09-.03h-5.62c-9.11,1.14-23.28,12.3-28.02,18.99l-.05.07c-1.16,1.63-2.15,3.03-.65,5.31,1.62,2.44,3.81,1.79,5.75,1.22.82-.24,1.59-.47,2.31-.49,3.28-.08,6.79,2.19,10.18,4.38,1.88,1.22,3.66,2.37,5.42,3.15,10.11,4.51,17.86,4.13,25.15-1.22.28-.2.64-.58,1.05-1.02.42-.44,1.17-1.22,1.5-1.39,4.66,2.41,5.33,7.37,5.01,11.3-16.67.92-32.83,7.63-45.55,18.93-12.87,11.44-21.42,26.9-24.08,43.52-.17,1.07-1.65,10.57-.81,14.33.35,1.59,1.8,2.75,3.59,2.89ZM197.31,108.33c-.56.6-1.09,1.17-1.69,1.62-4.04,3.03-6.16,2.33-9.09,1.36-1.41-.46-3-.99-5.02-1.17-5.18-.47-8.58,1.85-11.86,4.09-2.41,1.64-4.9,3.35-8.18,4.08-11.04,2.46-16.45-5.71-20.95-14.49,19.61-7.47,40.99-6.06,57.48,3.79-.24.24-.47.49-.69.73ZM186.14,74.99c3.45-1.25,7.74-2.8,6.42-6.93-.33-1.05-.94-1.76-1.79-2.12-2.12-.9-5.26.66-7.78,1.91-.92.45-1.79.89-2.4,1.08,0,0,0,0,0-.01.35-5.93,6.47-9.38,12.01-10.07,5.97-.74,12.96,2.61,20.78,9.99-3.06,1.04-6.14,2.84-9.13,4.59-7.32,4.28-14.25,8.34-21.57,3.03.9-.54,2.15-.99,3.46-1.46ZM138.73,69.29c-.14,3.25,3.49,4.55,6.68,5.71,1.31.47,2.56.92,3.45,1.46-7.4,5.36-14.89.95-22.14-3.33-2.81-1.66-5.72-3.37-8.55-4.45,7.23-6.23,14.77-12.34,24.97-8.73,4.72,1.67,7.33,4.66,7.74,8.88-.41-.17-.98-.44-1.51-.69-2.74-1.3-6.88-3.28-9.14-1.91-.93.56-1.43,1.59-1.49,3.07Z"/>
        <path class="cls-2" d="M107,266.58l.09.09.12.04c.51.17,1.01.26,1.5.26,1.09,0,2.1-.43,2.89-1.25l13.79-13.91.1-.13c1.6-3.02-.46-4.94-2.28-6.63-.77-.72-1.56-1.46-2.06-2.25.15-.16.29-.31.44-.47,2.5-2.72,4.86-5.28,8.74-5.63,8.52-.76,17.79-.4,26.77-.04,8.58.34,17.45.69,25.71.06,7.34-.56,14.5-3.73,20.7-9.15,7.19-6.29,14.1-13.61,20.78-20.68,6.03-6.38,12.26-12.98,18.67-18.8l.06-.06c6.42-7.99,4.08-16.85-.82-21.7-5.04-5-13.74-7.09-21.84-.45l-26.07,26.06c-.41-.95-1.27-2.07-1.83-2.61-2.16-2.1-5.77-3.78-8.8-4.08-6.41-.64-13.42-.35-20.21-.08-6.09.24-12.38.5-18.19.08-11.85-12.27-26.53-16.35-41.35-11.51-9.03,2.95-15.48,9.64-21.71,16.11-2.26,2.35-4.6,4.77-7.02,6.98-.8-.5-1.54-1.29-2.26-2.06-1.69-1.82-3.61-3.88-6.63-2.28l-.11.06-.07.1c-.85,1.11-3.27,3.36-5.84,5.73-5.28,4.89-8.78,8.22-9.14,9.84-.35,1.58.04,2.96,1.11,4l54.76,54.37ZM60.58,209.31s.05-.11.08-.16c.44-.66,6.04-6.32,7.5-7.51l48.31,47.9s.01.01.01.02c-.02.04-.05.11-.08.16-.39.58-5.84,6.05-7.27,7.33l-48.54-47.71s-.01-.01-.01-.02ZM142.08,192.97l41.08.09c3.78.44,5.35,3.29,5.54,5.61.21,2.52-1.11,5.51-4.52,6.52l-49.24.21h-.08c-2.24.35-3.35,2.27-3.3,3.99.05,1.6,1.16,3.57,4.13,3.84,8.31.76,17.38.4,26.16.06,7.51-.29,15.27-.59,22.46-.19h.06s.06,0,.06,0c6.37-1.09,10.6-5.35,12.24-12.33,4.86-3.99,9.61-9.24,14.2-14.32,4.95-5.48,10.06-11.14,15.25-15.12,1.23-.94,2.52-1.5,3.84-1.66h0c3.23-.39,6.27,1.04,7.94,3.74,1.64,2.66,1.57,5.97-.19,8.64l-40.83,40.89c-4.59,3.52-9.77,5.58-14.98,5.96-7.95.58-16.6.23-24.97-.11-9.39-.38-19.09-.78-27.9.14-5.33.56-8.6,3.49-12.07,6.6-.55.5-1.11,1-1.69,1.5l-34.52-34.52s.07-.08.15-.15c.11-.1.21-.2.29-.31,2.93-3.82,11.52-12.01,15.03-15.03,11.89-10.2,28.98-9.76,40.63,1.03.41.38.86.96,1.33,1.58,1.07,1.39,2.28,2.96,3.82,3.31h.06Z"/>
      </g>
    </g>
  </g>
</svg>